<?xml version="1.0" standalone="no"?>
<!DOCTYPE svg PUBLIC "-//W3C//DTD SVG 20010904//EN"
 "http://www.w3.org/TR/2001/REC-SVG-20010904/DTD/svg10.dtd">
<svg version="1.0" xmlns="http://www.w3.org/2000/svg"
 width="300.000000pt" height="111.000000pt" viewBox="0 0 300.000000 111.000000"
 preserveAspectRatio="xMidYMid meet">
<metadata>
Created by potrace 1.10, written by Peter Selinger 2001-2011
</metadata>
<g transform="translate(0.000000,111.000000) scale(0.100000,-0.100000)"
fill="#000000" stroke="none">
<path d="M70 1100 c-30 -5 -58 -6 -62 -4 -4 3 -7 -6 -6 -19 2 -17 8 -23 23
-22 23 2 111 -21 137 -35 10 -6 27 -10 37 -10 11 0 24 -7 29 -16 6 -11 17 -15
31 -11 13 3 19 1 14 -6 -4 -6 1 -8 15 -5 13 4 23 0 26 -8 6 -15 106 -21 106
-6 0 5 -27 17 -60 27 -33 10 -60 22 -60 27 0 5 -4 7 -9 3 -5 -3 -42 5 -83 19
-57 18 -74 28 -76 44 -3 21 -2 21 45 7 102 -31 157 -54 170 -71 7 -10 15 -15
18 -12 3 3 34 0 68 -8 61 -12 88 -12 48 1 -19 6 -28 38 -22 77 0 4 -6 5 -15 1
-8 -3 -20 1 -27 10 -15 18 -78 29 -98 16 -10 -6 -7 -9 12 -9 38 0 99 -28 99
-44 0 -8 6 -17 13 -20 11 -6 -2 -3 -55 9 -9 2 -64 20 -120 39 -109 38 -111 38
-198 26z m50 -25 c0 -18 -4 -18 -50 0 l-35 13 43 1 c31 1 42 -3 42 -14z"/>
<path d="M905 1090 c17 -19 16 -19 -86 -23 l-104 -3 111 -2 c95 -2 115 -5 135
-22 l24 -19 -135 -3 -135 -2 150 -6 150 -6 -150 -4 -150 -4 164 -6 c122 -4
165 -8 169 -18 3 -10 -29 -12 -162 -10 l-166 3 0 -42 c0 -44 3 -47 48 -45 14
1 22 -5 22 -15 0 -15 -12 -15 -52 2 -31 12 -19 -9 17 -32 26 -16 35 -18 35 -8
0 10 9 9 40 -6 45 -22 50 -23 50 -9 0 5 -18 15 -40 21 -22 7 -40 18 -40 26 0
13 1 14 36 18 12 1 27 6 34 10 9 5 11 4 6 -3 -5 -8 0 -12 13 -12 12 0 21 6 21
14 0 13 -61 26 -139 29 -23 1 -35 7 -36 18 -2 14 17 15 179 11 161 -4 183 -6
201 -23 19 -19 19 -19 -28 -19 -30 0 -46 4 -42 10 3 6 -1 10 -9 10 -14 0 -16
-15 -15 -97 1 -70 4 -88 9 -63 4 19 8 28 9 19 2 -23 51 -13 51 11 0 21 -23 33
-38 18 -7 -7 -11 4 -13 34 l-4 43 65 -3 c36 -2 71 -9 79 -15 12 -9 13 -9 7 1
-12 20 31 15 46 -6 14 -19 38 -37 38 -28 0 3 -10 14 -22 26 l-22 20 142 0 c88
0 142 -4 142 -10 0 -5 -8 -10 -17 -10 -15 0 -16 -2 -3 -10 12 -8 12 -10 -5
-10 -12 0 -16 -3 -9 -8 7 -4 14 -18 15 -32 3 -16 13 -27 29 -31 24 -7 24 -7
-5 -8 -24 -1 -27 -3 -15 -11 22 -15 150 -8 150 8 0 7 15 12 38 13 74 2 -9 17
-100 18 -71 1 -88 4 -88 16 0 13 18 15 113 13 l112 -2 -105 -6 -105 -6 133 -2
132 -2 0 -47 0 -48 -103 0 c-87 0 -105 -3 -124 -20 -13 -11 -23 -28 -23 -38 0
-10 -4 -16 -9 -13 -5 3 -11 -3 -14 -15 -4 -15 1 -23 19 -30 14 -5 30 -9 35 -9
5 0 9 -5 9 -11 0 -7 -11 -8 -32 -3 -28 6 -31 4 -21 -8 7 -8 13 -38 14 -66 l2
-52 81 2 81 2 -70 6 c-38 4 -56 7 -40 8 17 1 48 7 70 13 24 7 41 7 42 2 2 -6
37 -8 81 -6 56 3 73 2 62 -6 -13 -9 -13 -11 3 -11 10 0 17 8 17 20 0 13 -7 20
-19 20 -11 0 -23 4 -26 10 -3 5 -27 9 -53 9 -46 -2 -46 -2 -12 -9 37 -8 33
-12 -15 -15 -17 -2 -39 5 -50 15 -11 9 -29 20 -39 24 -16 5 -17 4 -6 -9 7 -8
20 -15 28 -15 11 0 13 -3 6 -10 -12 -12 -74 -2 -74 11 0 5 -7 9 -15 9 -9 0
-14 8 -12 20 5 30 16 35 32 14 8 -11 15 -14 15 -6 0 9 27 12 101 12 94 0 99 1
84 17 -13 12 -19 13 -24 4 -5 -8 -29 -11 -72 -9 -48 3 -59 6 -44 12 11 5 22
12 25 15 3 3 35 5 72 3 56 -3 68 -7 73 -23 5 -14 16 -19 39 -19 31 0 34 -3 40
-37 3 -21 6 -57 6 -80 0 -24 5 -43 10 -43 10 0 12 11 13 57 0 20 5 23 41 22
32 0 37 -2 21 -9 -18 -8 -17 -9 8 -9 25 -1 27 2 26 37 -1 20 -3 29 -6 20 -6
-24 -88 -26 -97 -2 -10 25 -7 34 8 28 7 -3 16 2 20 12 5 14 4 15 -8 5 -10 -8
-16 -9 -21 -1 -3 5 -3 10 1 10 3 0 0 8 -7 17 -8 9 -9 14 -2 10 8 -5 10 2 8 25
-2 18 -4 97 -4 176 -1 118 -3 142 -16 142 -9 0 -12 -6 -8 -16 5 -13 -3 -15
-48 -14 -93 3 -99 2 -99 -20 0 -18 -7 -20 -72 -22 l-73 -2 63 -3 c34 -2 62 -8
62 -13 0 -6 9 -10 20 -10 11 0 20 -4 20 -10 0 -5 -9 -10 -19 -10 -11 0 -23 5
-26 10 -3 6 -52 10 -110 10 -68 0 -106 4 -111 12 -5 7 -3 8 6 3 12 -7 10 7 -7
53 -3 8 4 12 21 12 14 0 26 5 26 10 0 7 47 10 136 9 74 0 138 2 141 5 4 3 -55
6 -130 6 -144 0 -147 1 -130 46 6 16 7 16 14 -2 6 -16 8 -16 8 -2 1 16 16 17
143 17 95 0 144 4 148 12 4 6 16 9 26 7 16 -3 13 -7 -16 -28 -32 -23 -47 -25
-175 -31 l-140 -5 130 -3 c233 -4 430 0 433 10 2 5 18 9 37 9 36 0 59 19 49
43 -5 15 12 34 23 24 3 -3 7 -47 8 -97 5 -142 15 -119 15 33 l0 136 -30 -1
c-18 -1 -30 -6 -30 -15 0 -10 -23 -13 -102 -13 -92 0 -100 1 -82 15 10 8 14
15 9 15 -6 0 -28 -18 -50 -40 -30 -31 -45 -39 -72 -38 -26 1 -33 6 -33 21 0
14 -4 17 -12 10 -7 -5 -59 -9 -115 -9 -57 1 -103 -2 -103 -6 0 -5 50 -8 110
-8 91 0 110 -3 110 -15 0 -13 -22 -15 -142 -15 l-143 0 -3 45 c-1 27 2 45 8
45 6 0 8 -4 5 -10 -13 -22 6 -30 36 -15 42 22 36 35 -19 35 l-48 0 4 -40 c4
-37 2 -40 -20 -40 -22 0 -24 4 -20 30 3 18 0 30 -7 30 -6 0 -11 -13 -11 -29 0
-26 -4 -30 -32 -34 -23 -3 -16 -4 20 -5 48 -2 52 -4 52 -27 0 -32 -27 -34 -33
-2 -4 22 -4 22 -6 0 -1 -17 -9 -23 -33 -26 l-33 -4 34 -1 c26 -2 32 -5 27 -18
-3 -9 -6 -18 -6 -20 0 -2 -10 -4 -22 -5 -22 0 -22 -1 -3 -9 13 -5 -25 -9 -103
-9 -77 -1 -121 3 -117 9 6 10 -132 200 -147 200 -5 0 -4 -6 2 -12 35 -43 80
-104 80 -111 0 -5 -25 21 -56 57 -31 36 -61 66 -66 66 -5 0 30 -45 78 -100 48
-55 89 -100 92 -100 3 0 -3 9 -13 20 -10 11 -16 22 -13 25 8 9 40 -33 33 -44
-3 -6 -22 -11 -41 -11 -24 0 -33 4 -28 12 4 7 3 8 -5 4 -6 -4 -9 -12 -6 -17 4
-5 -3 -9 -14 -9 -12 0 -20 4 -18 8 1 5 -11 20 -28 35 l-30 26 33 -1 c17 -1 32
-5 32 -10 0 -4 5 -8 12 -8 6 0 4 7 -5 18 -11 12 -27 17 -45 14 -18 -2 -42 4
-63 17 l-34 21 33 0 c17 0 32 3 32 8 0 4 -17 6 -37 4 -33 -3 -45 3 -90 42 -52
47 -81 62 -48 26z m1315 -40 c0 -19 -7 -20 -127 -20 l-128 1 24 19 c20 17 38
20 127 20 97 0 104 -1 104 -20z m-135 -40 l-140 -6 138 -2 c83 -1 137 -6 137
-12 0 -6 -33 -10 -77 -10 -43 0 -116 -3 -163 -6 l-85 -6 30 26 c29 25 33 25
165 24 l135 -2 -140 -6z m-175 -140 c0 -6 -30 -10 -70 -10 -40 0 -70 4 -70 10
0 6 30 10 70 10 40 0 70 -4 70 -10z m0 -30 c0 -6 -10 -15 -22 -20 l-23 -9 23
0 c27 -1 30 -21 2 -21 -11 0 -20 -4 -20 -10 0 -5 9 -10 20 -10 11 0 20 -7 20
-15 0 -8 -9 -15 -20 -15 -16 0 -20 -7 -20 -35 0 -27 3 -33 16 -28 11 4 12 9 5
16 -16 16 -13 23 9 24 14 1 18 -2 13 -10 -4 -7 -6 -22 -5 -34 3 -18 -1 -21
-25 -17 -15 3 -37 6 -48 7 -24 2 -46 29 -43 54 0 10 0 41 0 70 -2 45 -5 52
-24 56 -13 2 14 5 60 6 50 0 82 -3 82 -9z m-299 -154 c-10 -12 0 -15 69 -18
66 -2 77 -1 63 10 -16 11 -16 12 0 12 10 0 20 -7 23 -15 4 -8 14 -16 23 -16 9
-1 0 -5 -19 -9 -32 -7 -30 -7 20 -9 49 -1 56 -4 56 -21 0 -16 -7 -20 -31 -20
-22 0 -26 3 -15 9 8 6 18 7 22 5 4 -3 8 -1 8 3 0 12 -81 14 -95 4 -5 -5 -24
-12 -41 -15 -24 -5 -33 -3 -38 10 -6 16 -24 16 -71 -1 -20 -7 -20 -6 -1 9 12
9 39 16 65 16 25 0 53 5 61 11 11 7 -4 9 -51 7 -40 -2 -66 1 -65 7 2 14 16 35
23 35 3 0 0 -6 -6 -14z m294 -96 c0 -27 -22 -39 -31 -16 -8 22 3 49 18 44 7
-3 13 -15 13 -28z m-257 -2 c-2 -15 -10 -23 -23 -23 -13 0 -21 8 -23 23 -3 18
1 22 23 22 22 0 26 -4 23 -22z"/>
<path d="M2536 1099 c2 -4 -7 -9 -21 -11 -14 -3 -25 -1 -25 4 0 5 -5 6 -11 2
-8 -5 -8 -9 1 -14 7 -4 9 -13 5 -20 -5 -9 -4 -11 3 -6 7 4 12 1 12 -8 0 -8 -6
-17 -12 -19 -10 -4 -10 -6 0 -6 14 -1 17 -41 2 -41 -5 0 -10 -7 -10 -15 0 -18
7 -18 49 -4 37 13 42 34 6 25 -20 -5 -25 -3 -25 14 0 16 7 20 33 20 17 0 38 4
46 9 8 5 -4 7 -33 4 -42 -5 -46 -4 -46 16 0 11 4 21 9 21 5 0 22 5 38 12 15 6
34 10 41 9 6 -1 12 3 12 9 0 6 -16 9 -39 8 -21 -2 -37 -6 -35 -9z"/>
<path d="M2652 1073 c-1 -27 -8 -46 -20 -55 -10 -7 -21 -21 -25 -30 -5 -15 0
-18 26 -19 l32 -1 -40 -13 c-22 -7 -64 -16 -92 -20 -43 -6 -53 -11 -53 -26 0
-21 26 -26 32 -7 3 7 42 14 104 18 62 4 80 8 49 9 l-50 2 75 23 c41 12 79 20
84 17 5 -2 1 -8 -10 -12 -18 -7 -18 -8 -1 -8 11 -1 21 7 24 18 5 19 20 24 161
53 33 7 52 16 52 26 0 10 -6 12 -17 7 -10 -4 -61 -11 -113 -15 -52 -4 -81 -8
-65 -10 17 -1 37 -1 45 0 8 1 12 -1 9 -4 -14 -14 -165 -47 -203 -44 l-41 3 40
13 c42 14 64 22 105 40 21 9 73 25 158 48 6 2 12 9 12 15 0 17 -59 4 -168 -37
-51 -19 -94 -34 -97 -34 -2 0 -6 19 -8 43 l-4 42 -1 -42z"/>
<path d="M2880 984 l-85 -10 90 -5 c91 -5 115 -3 115 11 0 14 -34 15 -120 4z"/>
<path d="M70 960 c-41 -3 -64 -8 -51 -10 14 -3 26 -11 29 -19 3 -10 -2 -13
-22 -9 -16 3 -25 1 -23 -5 4 -13 70 -29 225 -57 63 -11 118 -23 124 -26 6 -4
32 -8 59 -10 l49 -4 0 35 c0 31 -3 35 -27 36 l-28 1 30 8 c25 6 20 8 -30 10
-33 1 -73 3 -90 4 -16 1 -51 3 -77 4 -36 2 -48 6 -48 18 0 10 6 14 18 10 9 -2
35 -1 57 3 36 7 31 8 -40 12 -44 2 -114 2 -155 -1z m72 -25 c5 -6 8 -5 8 3 0
6 7 12 15 12 9 0 15 -9 15 -25 0 -24 -2 -25 -60 -23 -54 3 -60 5 -60 25 0 20
5 22 38 20 20 -1 40 -6 44 -12z m110 -33 c-6 -2 -10 -8 -6 -13 6 -10 -2 -11
-33 -3 -35 9 -27 19 15 20 20 0 31 -1 24 -4z m132 -28 c9 -3 16 -10 16 -14 0
-8 -77 4 -87 14 -8 8 50 8 71 0z"/>
<path d="M2860 923 c-58 -14 -136 -25 -175 -25 -57 -1 -63 -2 -30 -7 l40 -7
-55 -9 c-30 -5 -79 -8 -107 -6 -35 2 -53 -1 -53 -9 0 -6 5 -8 10 -5 6 3 10 1
10 -4 0 -6 -5 -11 -12 -11 -6 0 -9 -2 -6 -5 4 -5 171 26 328 60 36 8 93 19
128 26 34 6 62 16 62 20 0 13 -21 10 -140 -18z"/>
<path d="M2130 920 c-14 -4 -40 -8 -57 -9 -28 -1 -33 -5 -33 -25 0 -14 5 -28
12 -32 8 -5 9 -2 5 9 -4 12 -1 17 11 18 9 0 46 3 80 5 41 3 62 2 58 -5 -4 -5
-2 -12 4 -16 6 -4 10 6 10 24 0 29 -2 30 -26 21 -34 -13 -37 -13 -30 5 6 16 3
17 -34 5z"/>
<path d="M1618 913 c29 -2 74 -2 100 0 26 2 2 3 -53 3 -55 0 -76 -1 -47 -3z"/>
<path d="M1590 891 c0 -5 36 -10 80 -10 46 0 80 4 80 9 0 6 -35 10 -80 10 -44
0 -80 -4 -80 -9z"/>
<path d="M2869 895 c-1 -3 -2 -9 -3 -14 -2 -18 -13 -20 -107 -26 -51 -3 -114
-9 -139 -13 l-45 -7 2 -100 c2 -55 3 -103 3 -106 0 -3 32 -12 70 -19 39 -7 73
-17 76 -22 3 -4 -8 -5 -23 -3 -15 3 -44 7 -63 9 -19 2 -43 7 -53 11 -15 6 -17
2 -15 -29 3 -30 7 -36 26 -36 12 0 22 5 22 11 0 6 -6 9 -13 6 -8 -3 -14 3 -14
14 -1 10 3 19 8 19 6 0 7 -4 4 -10 -4 -6 27 -10 84 -10 54 0 91 -4 91 -10 0
-5 7 -10 15 -10 29 0 15 17 -25 30 -22 7 -45 19 -51 26 -6 7 -16 11 -23 8 -8
-3 -16 4 -18 14 -4 15 -12 19 -33 14 -18 -3 -26 -1 -22 5 9 14 56 23 63 12 5
-9 59 -4 75 7 10 6 22 -36 17 -62 -3 -17 4 -19 53 -20 l56 -2 -2 42 c-1 22 -3
94 -5 159 -2 99 -5 135 -11 112z m-158 -67 c0 -10 2 -10 6 0 7 17 20 15 20 -3
0 -10 -10 -15 -27 -15 -17 0 -27 5 -27 15 0 18 27 20 28 3z m129 -8 c0 -5 -19
-10 -42 -9 -33 0 -38 2 -23 9 28 12 65 12 65 0z m-86 -37 c3 -7 12 -13 19 -13
10 0 14 -13 13 -45 l-1 -45 -62 0 c-34 0 -65 5 -68 10 -3 6 -19 10 -36 10 -29
0 -39 13 -19 25 6 3 7 17 4 31 -5 19 -2 24 12 25 19 0 19 1 0 8 -10 4 16 7 58
7 53 0 77 -4 80 -13z m96 7 c-14 -4 -21 -8 -16 -9 5 -1 3 -8 -4 -16 -18 -21
-4 -32 21 -17 19 12 20 11 14 -20 -3 -18 -7 -57 -8 -85 -2 -47 -4 -53 -24 -53
-18 0 -23 6 -23 24 0 13 -3 31 -6 40 -4 12 0 16 17 17 24 2 24 2 2 6 -20 4
-23 10 -23 58 0 43 -4 54 -17 58 -10 3 7 5 37 5 42 0 49 -2 30 -8z"/>
<path d="M2950 853 c0 -41 4 -50 25 -60 24 -11 25 -10 25 24 0 19 -4 32 -9 29
-5 -3 -14 8 -20 24 -14 43 -21 37 -21 -17z"/>
<path d="M40 866 c19 -19 15 -106 -5 -106 -8 0 -11 -8 -8 -20 6 -23 14 -25 32
-7 10 10 12 5 9 -22 -3 -24 -11 -37 -26 -42 -16 -6 -22 -5 -22 6 0 7 -5 17
-10 20 -6 4 -10 -8 -10 -29 0 -33 2 -35 22 -27 13 4 28 6 34 4 5 -2 21 8 34
22 19 21 21 25 7 25 -21 0 -23 38 -2 46 10 4 15 19 15 43 -1 34 -1 35 -13 13
-7 -12 -16 -19 -20 -16 -12 12 -8 84 5 84 20 0 1 11 -28 16 -26 5 -27 3 -14
-10z"/>
<path d="M2125 850 c-11 -5 -36 -9 -55 -10 -30 0 -32 -2 -17 -11 21 -12 53 -6
82 15 22 17 20 19 -10 6z"/>
<path d="M1078 843 c18 -2 45 -2 60 0 15 2 0 4 -33 4 -33 0 -45 -2 -27 -4z"/>
<path d="M270 830 c0 -6 7 -13 15 -16 8 -4 13 -9 10 -14 -2 -4 7 -5 20 -2 30
5 34 22 6 22 -11 0 -23 5 -26 10 -8 13 -25 13 -25 0z"/>
<path d="M2199 836 c-2 -3 -38 -13 -79 -24 -93 -24 -101 -40 -18 -35 49 3 60
2 48 -7 -12 -9 -8 -10 19 -6 18 3 37 6 42 6 20 0 7 16 -13 17 -13 0 -39 1 -58
2 -34 2 -34 3 15 16 28 8 51 14 53 15 2 0 0 -4 -3 -10 -3 -5 -1 -10 4 -10 6 0
11 9 11 20 0 18 -10 26 -21 16z"/>
<path d="M1160 756 c0 -74 -1 -76 -25 -76 -14 0 -25 -3 -25 -6 0 -11 30 -35
38 -31 4 3 7 -19 8 -49 0 -51 -1 -54 -26 -54 -22 0 -26 5 -28 32 -2 17 -8 38
-14 45 -7 8 -9 38 -6 78 5 56 4 62 -9 50 -8 -8 -19 -15 -24 -15 -5 0 -8 -5 -7
-12 2 -7 -14 -13 -39 -15 -39 -4 -46 -1 -90 41 -40 39 -54 46 -87 46 l-40 0
49 -50 c44 -44 54 -50 91 -50 51 0 95 -32 125 -91 20 -41 32 -52 23 -21 -5 14
-3 14 11 -3 9 -12 11 -21 5 -23 -5 -2 -10 -16 -10 -32 0 -22 -6 -30 -31 -39
-18 -6 -41 -11 -53 -11 -16 0 -18 -2 -7 -9 8 -5 27 -5 45 0 42 12 44 12 49 -8
3 -12 6 -9 7 10 1 15 4 32 5 37 1 6 3 15 4 20 0 6 12 10 25 10 14 0 28 -4 31
-10 14 -22 26 -9 20 21 -5 22 -3 34 6 40 8 5 10 9 4 9 -6 0 -10 35 -10 87 1
67 4 88 15 91 8 2 20 11 27 19 11 14 14 13 29 -2 13 -13 19 -14 25 -4 9 16 79
22 79 8 0 -6 -5 -7 -12 -3 -7 4 -8 3 -4 -4 10 -17 36 -15 30 2 -3 8 2 16 13
19 16 4 16 5 -2 6 -11 1 -56 3 -100 5 -44 2 -88 6 -97 10 -16 7 -18 1 -18 -68z"/>
<path d="M170 771 c0 -49 1 -51 20 -39 17 10 18 14 5 16 -17 4 -20 23 -5 38 8
8 6 15 -5 24 -13 11 -15 6 -15 -39z"/>
<path d="M1447 813 c-8 -12 4 -63 14 -63 5 0 9 -20 9 -45 l0 -45 -137 -1 c-76
-1 -128 -4 -116 -6 18 -3 21 -11 20 -41 -2 -36 -1 -37 37 -40 25 -2 36 0 31 7
-3 6 -10 9 -14 7 -13 -9 -34 12 -28 28 5 13 24 16 103 16 l97 0 -26 -20 c-16
-13 -42 -21 -74 -22 l-48 -1 43 -6 43 -6 -80 -53 c-54 -36 -78 -58 -74 -68 6
-16 23 -19 23 -4 0 6 39 10 98 9 64 -1 88 -4 72 -9 -22 -7 -21 -8 13 -9 20 -1
37 4 37 9 0 6 -4 10 -9 10 -4 0 -6 23 -3 51 l5 50 -33 -3 c-40 -4 -54 -28 -16
-28 39 0 31 -18 -11 -26 -21 -4 -42 -10 -48 -14 -20 -15 -74 -20 -81 -7 -4 7
-4 9 1 5 4 -4 17 2 27 14 34 39 102 78 136 78 l33 0 -7 98 c-4 53 -11 100 -17
103 -5 4 -7 11 -3 17 3 6 2 13 -3 16 -5 4 -12 3 -14 -1z"/>
<path d="M344 786 c-57 -14 -159 -68 -219 -116 l-40 -33 44 6 c32 4 40 2 32
-6 -27 -27 8 -38 42 -13 14 11 15 15 5 19 -7 3 -2 6 12 6 14 1 115 8 225 16
110 8 228 15 263 15 37 0 62 4 62 11 0 21 -56 82 -87 95 -41 18 -267 17 -339
0z m226 -22 c0 -8 5 -14 10 -14 14 0 13 -19 -2 -34 -17 -16 -48 -28 -48 -18 0
5 -16 6 -36 4 -28 -3 -41 1 -62 20 -15 14 -36 30 -47 36 -17 10 -15 11 19 12
22 0 55 -5 73 -12 26 -9 36 -9 45 1 11 10 9 11 -7 6 -15 -5 -16 -4 -6 3 20 14
61 12 61 -4z m92 -6 c-16 -16 -15 -25 3 -25 8 0 15 5 15 10 0 5 7 4 15 -3 24
-20 17 -30 -17 -23 -26 5 -30 4 -25 -10 5 -13 1 -17 -18 -17 -18 0 -25 7 -30
30 -9 39 0 50 38 50 24 0 28 -3 19 -12z m-286 -24 c19 -3 37 -11 40 -16 4 -6
-1 -8 -13 -4 -13 4 -25 0 -34 -11 -13 -16 -12 -17 3 -5 11 9 18 10 23 2 11
-18 -22 -22 -54 -5 -30 15 -32 15 -40 -6 -7 -20 -8 -21 -15 -4 -6 17 -8 17
-25 1 -17 -15 -51 -13 -51 4 0 12 125 70 128 60 2 -5 19 -12 38 -16z"/>
<path d="M1420 791 c0 -5 -9 -7 -20 -4 -25 7 -27 -13 -2 -21 9 -3 -22 -4 -71
-3 l-87 2 1 -35 c1 -31 2 -32 8 -10 7 24 9 25 99 24 70 0 89 2 82 12 -6 6 -8
19 -4 28 3 9 3 16 0 16 -3 0 -6 -4 -6 -9z"/>
<path d="M2243 770 c-13 -5 -23 -14 -23 -20 0 -7 -17 -9 -47 -6 -27 3 -40 3
-30 0 9 -3 17 -10 17 -16 0 -6 13 -8 35 -4 l34 7 -5 -63 c-6 -82 -5 -156 2
-190 4 -20 12 -28 27 -28 29 0 51 15 43 29 -4 6 -12 9 -17 5 -5 -3 -6 -10 -3
-16 4 -6 2 -8 -4 -4 -6 3 -14 21 -17 39 -4 17 -10 36 -13 41 -9 15 -10 60 -2
71 4 6 10 27 14 48 4 20 11 37 16 37 6 0 10 11 10 25 0 24 3 25 54 25 87 0
110 -8 126 -43 l15 -32 3 39 c6 65 4 66 -110 65 -57 0 -113 -4 -125 -9z"/>
<path d="M2043 703 c-1 -27 -4 -63 -6 -80 -4 -29 -2 -33 18 -33 31 0 31 40 0
41 -20 0 -20 1 0 8 13 5 20 18 21 40 1 18 6 37 12 43 6 6 9 -17 9 -67 0 -41 3
-78 7 -82 3 -3 6 -1 6 5 0 7 14 12 30 12 23 0 30 4 30 20 0 23 -25 27 -34 5
-9 -24 -26 -17 -26 10 0 22 4 25 35 25 20 0 35 5 35 11 0 7 8 18 18 25 15 12
14 13 -10 14 -20 0 -28 -5 -28 -18 0 -12 -8 -18 -25 -20 -23 -2 -25 2 -25 38
0 38 -1 40 -25 34 -15 -4 -25 -2 -25 5 0 6 -4 11 -8 11 -4 0 -8 -21 -9 -47z"/>
<path d="M2949 688 c0 -18 -2 -52 -4 -75 -2 -41 -1 -43 26 -43 27 0 29 3 29
36 0 27 -4 35 -14 31 -8 -3 -17 1 -20 9 -4 9 1 14 14 14 16 0 20 7 20 30 0 25
-4 30 -25 30 -21 0 -25 -5 -26 -32z"/>
<path d="M1940 701 c0 -10 38 -18 63 -13 33 7 17 22 -23 22 -22 0 -40 -4 -40
-9z"/>
<path d="M2502 678 c6 -18 22 -20 43 -3 19 14 18 14 -13 15 -22 0 -32 -4 -30
-12z"/>
<path d="M2467 643 c-4 -3 -7 -43 -7 -89 l0 -82 -29 -7 c-15 -3 -47 -5 -69 -4
-23 2 -45 0 -48 -4 -4 -4 31 -7 78 -7 69 0 87 3 92 16 8 22 8 26 -4 19 -5 -3
-10 -2 -10 4 0 5 5 13 10 16 6 3 10 11 10 16 0 6 -4 7 -10 4 -5 -3 -10 -2 -10
4 0 5 5 13 10 16 6 3 10 13 10 21 0 9 -5 12 -11 8 -8 -5 -8 -1 0 14 14 26 14
35 0 26 -8 -4 -9 0 -4 15 6 21 4 26 -8 14z"/>
<path d="M895 630 c4 -6 10 -8 15 -5 4 3 15 -11 24 -30 13 -26 23 -35 41 -35
23 0 23 2 -14 40 -21 22 -46 40 -55 40 -9 0 -14 -5 -11 -10z"/>
<path d="M480 600 c-11 -7 -2 -10 33 -10 26 0 47 5 47 10 0 13 -60 13 -80 0z"/>
<path d="M2391 543 c-28 -31 -49 -59 -46 -61 3 -3 6 -3 8 -1 2 2 25 30 51 62
62 74 53 74 -13 0z"/>
<path d="M113 565 c-5 -15 2 -96 14 -142 5 -20 11 -23 60 -23 35 0 52 4 48 11
-4 5 -12 8 -18 6 -7 -2 -20 0 -30 5 -12 6 -23 5 -32 -2 -18 -15 -28 21 -29
102 -1 61 -3 68 -13 43z"/>
<path d="M1230 546 c0 -12 10 -16 38 -15 34 1 35 1 10 9 -14 4 -31 11 -37 15
-6 3 -11 -1 -11 -9z"/>
<path d="M2945 548 c3 -7 6 -42 8 -78 3 -58 6 -65 25 -68 15 -2 22 2 22 12 0
9 -7 16 -15 16 -21 0 -19 28 3 33 16 4 16 5 0 6 -10 0 -18 8 -18 17 0 10 6 14
15 10 8 -3 15 -2 15 3 0 5 -9 11 -21 14 -24 6 -17 27 9 28 14 0 13 2 -3 9 -29
13 -45 12 -40 -2z"/>
<path d="M753 525 c-17 -7 -39 -27 -47 -44 -19 -36 -21 -97 -3 -108 6 -4 17
-17 23 -28 6 -11 23 -26 38 -33 15 -8 25 -16 23 -18 -6 -6 -368 -12 -384 -6
-7 2 -10 8 -7 13 3 5 82 9 175 9 111 0 168 3 164 10 -3 6 -17 7 -30 4 -12 -3
-26 -1 -29 5 -5 7 2 11 16 12 20 0 19 2 -7 11 -16 6 -32 14 -35 18 -8 12 -329
14 -390 3 -30 -6 -48 -11 -40 -12 9 -1 1 -10 -18 -21 -18 -11 -39 -17 -45 -13
-8 5 -3 9 12 13 45 10 36 30 -13 30 -44 0 -45 1 -58 41 -12 42 -66 109 -87
109 -19 0 -8 -50 16 -72 14 -13 23 -33 23 -52 0 -24 3 -27 10 -16 8 13 10 13
10 -2 0 -19 -44 -53 -57 -45 -5 3 -10 -6 -11 -19 -2 -25 -1 -25 51 -20 183 19
309 15 285 -9 -3 -3 -57 -6 -119 -6 -63 0 -139 -4 -169 -9 -33 -5 95 -7 325
-4 399 5 496 13 532 46 12 11 26 17 32 14 6 -4 20 -2 32 5 19 10 21 9 16 -6
-5 -12 -2 -16 10 -13 26 5 26 23 -2 38 -23 13 -24 15 -8 23 24 12 43 37 43 55
0 12 -4 12 -25 -2 -32 -21 -52 -20 -64 2 -5 9 -9 19 -9 22 0 26 -31 61 -64 74
-47 19 -73 20 -115 1z m127 -53 c14 -15 16 -19 4 -9 -28 23 -41 22 -20 -2 9
-10 21 -32 26 -49 8 -28 5 -34 -27 -62 -28 -25 -41 -30 -62 -25 -54 13 -75 56
-57 115 7 24 6 24 -8 6 -18 -23 -21 -14 -5 15 14 27 67 49 99 42 14 -3 36 -17
50 -31z m-246 -111 c3 -4 -35 -6 -84 -3 -79 4 -90 3 -90 -12 0 -9 -7 -16 -15
-16 -9 0 -12 6 -9 15 5 11 -1 15 -25 15 -35 0 -37 -3 -15 -24 14 -15 13 -16
-14 -16 -17 0 -32 6 -36 15 -3 8 -15 15 -26 15 -12 0 -18 5 -15 10 8 12 322
14 329 1z m-494 -20 c0 -20 -18 -31 -51 -31 -19 0 -19 1 -2 25 22 29 53 33 53
6z"/>
<path d="M814 454 c3 -9 6 -18 6 -21 0 -3 7 0 15 7 13 11 14 10 8 -5 -5 -14
-3 -17 10 -12 11 4 15 1 12 -13 -2 -11 0 -22 6 -25 23 -15 7 45 -17 64 -32 25
-48 27 -40 5z"/>
<path d="M790 443 c0 -15 -2 -16 -10 -3 -9 13 -11 13 -20 0 -7 -11 -5 -16 6
-18 21 -5 50 23 35 32 -6 4 -11 0 -11 -11z"/>
<path d="M796 412 c-8 -13 11 -35 23 -28 16 10 14 36 -3 36 -8 0 -17 -4 -20
-8z"/>
<path d="M1840 531 c0 -19 22 -23 38 -7 15 15 14 16 -11 16 -15 0 -27 -4 -27
-9z"/>
<path d="M1160 490 c0 -5 -6 -10 -14 -10 -8 0 -18 -4 -21 -10 -4 -6 7 -10 24
-10 24 0 31 4 31 20 0 11 -4 20 -10 20 -5 0 -10 -4 -10 -10z"/>
<path d="M2610 486 c0 -17 73 -25 150 -17 79 8 47 22 -61 26 -69 3 -89 1 -89
-9z"/>
<path d="M2086 481 c-3 -4 -2 -28 3 -52 l9 -44 1 53 c1 51 -2 61 -13 43z"/>
<path d="M1204 432 c-12 -9 -32 -24 -44 -32 -64 -42 -65 -45 -46 -71 10 -13
16 -17 14 -9 -3 8 5 20 16 26 12 6 20 16 19 22 -2 7 4 12 12 12 7 0 18 6 22
13 4 8 16 16 26 20 9 3 17 13 17 22 0 19 -10 19 -36 -3z"/>
<path d="M1740 435 c0 -8 9 -15 21 -15 12 0 17 -4 14 -11 -4 -6 2 -13 13 -16
11 -2 22 -13 25 -24 4 -14 14 -19 39 -19 33 1 33 1 12 18 -12 9 -32 24 -44 32
-13 8 -32 23 -42 33 -22 21 -38 22 -38 2z"/>
<path d="M366 433 c-3 -3 -22 -5 -43 -5 -22 0 -45 -3 -53 -9 -10 -5 28 -9 104
-9 121 0 145 6 65 16 -24 3 -49 7 -56 9 -6 2 -14 1 -17 -2z"/>
<path d="M2235 418 c1 -19 8 -24 38 -26 38 -3 47 7 23 27 -10 9 -16 9 -21 1
-5 -8 -12 -7 -24 4 -16 15 -18 14 -16 -6z"/>
<path d="M2460 415 c0 -14 4 -25 9 -25 12 0 23 29 15 41 -10 18 -24 9 -24 -16z"/>
<path d="M2573 427 c-4 -8 -15 -17 -23 -20 -8 -3 -1 -6 17 -6 37 -1 49 11 29
28 -11 9 -16 9 -23 -2z"/>
<path d="M2644 428 c-3 -4 4 -8 16 -8 12 0 18 -4 15 -10 -4 -6 13 -10 44 -10
28 0 51 4 51 8 0 11 -120 30 -126 20z"/>
<path d="M2818 433 c-32 -5 -38 -23 -9 -23 11 0 26 -2 33 -5 9 -4 14 2 15 15
1 11 -1 19 -5 19 -4 -1 -19 -4 -34 -6z"/>
<path d="M1568 423 c23 -2 59 -2 80 0 20 2 1 4 -43 4 -44 0 -61 -2 -37 -4z"/>
<path d="M2689 370 c9 -9 21 -15 26 -13 6 3 2 -2 -7 -10 -10 -8 -15 -17 -11
-20 3 -4 1 -7 -5 -7 -6 0 -9 -7 -6 -15 7 -16 59 -21 69 -6 3 5 -4 12 -15 16
-18 6 -19 8 -5 22 26 25 14 47 -26 48 -33 2 -34 0 -20 -15z"/>
<path d="M2964 374 c4 -9 1 -23 -5 -30 -9 -11 -6 -16 12 -23 17 -7 19 -10 7
-10 -28 -1 -31 -21 -4 -21 24 0 26 3 26 50 0 44 -2 50 -21 50 -15 0 -19 -4
-15 -16z"/>
<path d="M2404 370 c16 -5 33 -7 38 -4 4 3 8 -8 8 -24 0 -25 -5 -30 -31 -36
-50 -10 -82 -7 -113 9 -26 14 -31 14 -47 -1 -10 -9 -16 -21 -13 -26 3 -5 57
-7 120 -6 l114 3 0 48 0 47 -52 -1 c-47 -1 -49 -2 -24 -9z"/>
<path d="M2547 374 c-3 -4 -2 -16 4 -26 8 -14 8 -23 0 -31 -19 -19 -12 -37 13
-37 27 0 42 15 26 25 -6 4 -8 10 -5 15 16 27 -18 74 -38 54z"/>
<path d="M1420 350 c-24 -19 -24 -19 -2 -13 18 4 22 1 22 -18 0 -24 -1 -24
-128 -25 -70 -1 -145 -6 -167 -12 -32 -8 -2 -10 138 -11 167 -1 177 0 177 18
0 10 3 33 6 50 8 37 -8 41 -46 11z"/>
<path d="M1544 361 c14 -5 16 -10 8 -15 -14 -9 -16 -26 -3 -26 5 0 17 7 26 16
13 14 14 19 3 25 -7 5 -22 8 -33 8 -19 0 -19 -1 -1 -8z"/>
<path d="M2070 340 c0 -6 12 -16 28 -23 15 -6 30 -16 33 -20 4 -5 9 -5 13 1 3
6 -10 19 -30 31 -40 24 -44 25 -44 11z"/>
<path d="M1891 326 c-19 -23 -2 -46 35 -46 40 0 42 9 11 38 -27 26 -31 26 -46
8z"/>
<path d="M1036 309 c-14 -11 -26 -25 -26 -30 0 -15 44 -10 68 7 18 13 21 19
11 30 -15 19 -21 18 -53 -7z"/>
<path d="M1596 311 c-3 -5 -15 -7 -25 -4 -13 3 -23 -2 -30 -16 -12 -21 -11
-21 149 -21 105 0 159 3 155 10 -4 6 -55 10 -120 10 -102 0 -147 9 -113 23 9
4 10 6 1 6 -6 1 -14 -3 -17 -8z"/>
<path d="M880 280 c-21 -7 -18 -8 18 -9 26 -1 41 3 37 9 -7 11 -19 11 -55 0z"/>
<path d="M1960 270 c0 -5 -14 -10 -31 -10 -27 0 -30 -2 -19 -15 10 -13 15 -13
21 -3 6 9 13 8 31 -8 28 -25 98 -39 98 -20 0 16 -32 46 -48 46 -7 0 -12 5 -12
10 0 6 -9 10 -20 10 -11 0 -20 -4 -20 -10z"/>
<path d="M938 242 c-21 -15 -38 -30 -38 -34 0 -17 73 -7 101 13 25 18 27 22
15 35 -20 20 -36 17 -78 -14z"/>
<path d="M2252 259 c7 -4 16 -5 22 -2 5 3 6 1 3 -4 -4 -6 -1 -16 7 -22 9 -8
15 -8 18 -2 4 13 92 24 118 16 10 -3 24 -21 30 -40 7 -20 18 -35 27 -35 12 0
13 3 5 13 -7 8 -9 29 -5 49 l5 37 -121 -2 c-67 0 -116 -4 -109 -8z"/>
<path d="M2540 262 c0 -21 29 -32 85 -33 33 -1 74 -5 90 -9 27 -6 28 -8 10
-15 -23 -10 -35 -24 -35 -42 0 -17 27 -17 33 0 3 6 6 2 6 -10 1 -12 -5 -24
-11 -26 -7 -3 -4 -6 7 -6 18 -1 20 5 20 50 0 43 -4 53 -20 60 -38 14 8 9 97
-12 49 -12 92 -18 95 -15 9 9 -38 23 -101 31 -34 5 -60 13 -63 21 -8 21 -63
18 -63 -2 0 -14 -8 -16 -52 -11 -29 4 -54 11 -56 17 -4 12 -42 14 -42 2z"/>
<path d="M2893 263 c20 -2 54 -2 75 0 20 2 3 4 -38 4 -41 0 -58 -2 -37 -4z"/>
<path d="M1601 253 l-73 -4 6 -62 c17 -157 17 -157 42 -157 12 0 26 5 29 10 3
6 -3 10 -14 10 -23 0 -41 22 -23 28 18 6 14 30 -5 41 -10 6 -13 11 -6 11 7 0
10 14 8 40 -3 37 -1 40 22 40 13 0 22 4 18 9 -9 15 23 19 135 17 74 -1 109 2
118 11 14 13 -60 15 -257 6z"/>
<path d="M50 235 c7 -8 19 -15 26 -15 8 0 14 -5 14 -12 0 -7 6 -4 13 5 11 15
44 17 302 19 226 2 290 0 291 -9 1 -7 2 -26 3 -43 0 -16 6 -30 12 -30 6 0 8 9
4 20 -3 11 -2 20 3 20 5 0 9 7 8 16 -2 25 32 43 44 24 5 -8 10 -10 10 -4 0 8
23 12 61 13 34 0 64 3 67 6 3 3 -192 5 -433 5 -388 0 -436 -2 -425 -15z"/>
<path d="M1102 239 c4 -12 273 -14 291 -2 6 4 8 -1 4 -10 -3 -10 -2 -17 2 -17
5 0 11 5 13 10 2 6 9 1 17 -11 12 -20 11 -21 -4 -15 -14 5 -15 3 -8 -6 14 -18
22 -67 12 -74 -5 -2 -4 -15 1 -28 6 -16 5 -29 -3 -40 -10 -14 -51 -17 -292
-22 -154 -4 -282 -8 -284 -10 -2 -2 131 -4 297 -4 l302 0 0 38 c0 20 3 74 7
120 l6 82 -182 0 c-129 0 -182 -3 -179 -11z"/>
<path d="M2966 219 c-19 -19 -19 -19 7 -19 20 0 27 5 27 20 0 25 -9 25 -34 -1z"/>
<path d="M2548 196 c-33 -12 -37 -26 -7 -26 11 0 18 -4 15 -9 -7 -11 25 -24
34 -14 4 4 2 19 -4 33 -10 23 -14 25 -38 16z"/>
<path d="M2101 146 c-13 -23 -11 -27 24 -58 31 -27 47 -33 87 -34 26 -1 48 0
48 3 0 17 -36 53 -55 53 -22 0 -64 37 -55 49 3 3 -4 7 -16 9 -13 2 -25 -6 -33
-22z"/>
<path d="M773 127 c-23 -18 -51 -44 -63 -59 l-21 -28 51 0 c43 0 58 5 90 32
45 37 48 48 22 71 -24 22 -30 21 -79 -16z"/>
<path d="M2945 150 c-5 -9 18 -20 41 -20 8 0 14 4 14 9 0 11 -49 21 -55 11z"/>
<path d="M2882 115 c3 -3 14 -7 24 -9 11 -2 33 -7 49 -11 l30 -6 -25 15 c-23
14 -90 23 -78 11z"/>
<path d="M2740 83 c0 -17 -8 -23 -37 -28 -46 -7 -103 -4 -103 7 0 4 10 8 23 9
21 0 21 1 2 8 -11 5 -22 4 -23 0 -2 -5 -9 -6 -14 -3 -6 4 -8 2 -4 -4 3 -6 1
-14 -6 -18 -16 -10 -248 -17 -508 -16 -118 1 -262 -3 -320 -8 -70 -6 99 -7
514 -5 340 2 621 6 624 9 12 13 -12 21 -71 26 -38 3 -62 10 -62 17 0 6 -3 15
-7 19 -5 4 -8 -2 -8 -13z"/>
<path d="M255 20 l-120 -6 154 -2 c85 -1 152 0 150 2 -10 9 -74 11 -184 6z"/>
</g>
</svg>
